<svg height="412pt" viewBox="0 -44 412.00045 412" width="412pt" xmlns="http://www.w3.org/2000/svg"><path d="m384.050781 157.28125c-8.597656 6.066406-18.847656 9.355469-29.371093 9.417969v-103.480469c22.480468.1875 42.269531 14.867188 48.96875 36.328125 6.699218 21.457031-1.21875 44.789063-19.597657 57.734375zm0 0" fill="#e48e66"/><path d="m354.679688 63.21875v129.652344c0 17.152344-13.90625 31.054687-31.058594 31.050781h-185.121094l-82.808594 73.71875v-73.71875h-18.640625c-17.148437 0-31.050781-13.902344-31.050781-31.050781v-155.820313c0-17.148437 13.902344-31.050781 31.050781-31.050781h286.570313c17.152344-.003906 31.058594 13.898438 31.058594 31.050781zm-59.78125 27.589844v-17.25c0-11.433594-9.269532-20.703125-20.703126-20.703125-11.433593 0-20.707031 9.269531-20.707031 20.703125v17.25zm-73.160157 33.050781h-82.808593c0 22.867187 18.539062 41.40625 41.40625 41.40625 22.867187 0 41.402343-18.539063 41.402343-41.40625zm-114.546875-33.050781v-17.25c0-11.433594-9.269531-20.703125-20.707031-20.703125-11.433594 0-20.703125 9.269531-20.703125 20.703125v17.25zm0 0" fill="#f8ec7d"/><path d="m294.898438 73.558594v17.25h-41.410157v-17.25c0-11.433594 9.273438-20.703125 20.707031-20.703125 11.433594 0 20.703126 9.269531 20.703126 20.703125zm0 0" fill="#6fe3ff"/><path d="m261.460938 285.21875c-.003907 18.050781-14.636719 32.683594-32.6875 32.679688-18.050782 0-32.683594-14.632813-32.683594-32.679688 0-18.050781 14.628906-32.6875 32.679687-32.6875 18.058594-.007812 32.695313 14.632812 32.691407 32.6875zm0 0" fill="#e48e66"/><path d="m138.929688 123.859375h82.808593c0 22.867187-18.535156 41.40625-41.402343 41.40625-22.867188 0-41.40625-18.539063-41.40625-41.40625zm0 0" fill="#6fe3ff"/><path d="m107.191406 73.558594v17.25h-41.410156v-17.25c0-11.433594 9.269531-20.703125 20.703125-20.703125 11.4375 0 20.707031 9.269531 20.707031 20.703125zm0 0" fill="#6fe3ff"/><g fill="#63316d"><path d="m86.480469 46.859375c-14.738281.019531-26.683594 11.960937-26.699219 26.699219v17.25c0 3.316406 2.683594 6 6 6h41.410156c3.3125 0 6-2.683594 6-6v-17.25c-.003906-14.746094-11.964844-26.699219-26.710937-26.699219zm14.710937 37.949219h-29.410156v-11.25c-.003906-5.949219 3.574219-11.3125 9.070312-13.589844 5.496094-2.277344 11.824219-1.015625 16.027344 3.191406l.007813.007813c2.765625 2.746093 4.316406 6.488281 4.304687 10.390625zm0 0"/><path d="m274.199219 46.859375c-14.742188.015625-26.6875 11.960937-26.710938 26.699219v17.25c0 3.316406 2.6875 6 6 6h41.410157c3.316406 0 6-2.683594 6-6v-17.25c-.003907-14.742188-11.953126-26.695313-26.699219-26.699219zm14.699219 37.949219h-29.410157v-11.25c0-5.945313 3.582031-11.308594 9.078125-13.582032 5.496094-2.277343 11.820313-1.015624 16.023438 3.191407 2.769531 2.75 4.320312 6.492187 4.308594 10.390625zm0 0"/><path d="m221.738281 117.859375h-82.808593c-3.3125 0-6 2.6875-6 6 0 26.183594 21.222656 47.40625 47.40625 47.40625 26.179687 0 47.402343-21.222656 47.402343-47.40625 0-3.3125-2.683593-6-6-6zm-16.375 31.03125c-9.351562 9.355469-23.140625 12.71875-35.75 8.714844-12.609375-4.003907-21.933593-14.707031-24.175781-27.746094h69.800781c-1.226562 7.21875-4.679687 13.871094-9.875 19.03125zm0 0"/><path d="m317.199219 279.21875h-50.207031c-3.132813-19.949219-21.085938-34.132812-41.222657-32.5625-20.132812 1.574219-35.667969 18.367188-35.667969 38.5625s15.535157 36.992188 35.667969 38.5625c20.136719 1.574219 38.089844-12.609375 41.222657-32.5625h50.207031c40.214843-.042969 72.804687-32.632812 72.851562-72.847656v-58.101563c18.371094-14.511719 26.160157-38.679687 19.722657-61.1875-6.4375-22.507812-25.828126-38.902343-49.09375-41.507812v-20.523438c-.027344-20.457031-16.605469-37.0273435-37.058594-37.050781h-286.570313c-20.453125.0234375-37.0273435 16.597656-37.050781 37.050781v155.820313c.0234375 20.453125 16.597656 37.027344 37.050781 37.050781h12.640625v67.71875c0 2.363281 1.386719 4.507813 3.542969 5.472656 2.15625.96875 4.679687.578125 6.445313-.992187l81.101562-72.199219h182.839844c20.453125-.023437 37.03125-16.597656 37.058594-37.050781v-20.527344c6.003906-.65625 11.867187-2.257812 17.371093-4.746094v50.773438c-.039062 33.589844-27.261719 60.8125-60.851562 60.847656zm-88.429688 32.679688c-14.738281 0-26.683593-11.949219-26.679687-26.6875.003906-14.738282 11.953125-26.683594 26.691406-26.679688 14.738281 0 26.679688 11.953125 26.679688 26.6875-.019532 14.734375-11.960938 26.667969-26.691407 26.679688zm119.910157-119.027344c-.019532 13.832031-11.230469 25.035156-25.058594 25.050781h-185.121094c-1.472656 0-2.890625.539063-3.988281 1.515625l-72.820313 64.828125v-60.34375c0-3.316406-2.6875-6-6-6h-18.640625c-13.828125-.015625-25.035156-11.222656-25.050781-25.050781v-155.820313c.015625-13.828125 11.222656-25.035156 25.050781-25.050781h286.570313c13.828125.011719 25.039062 11.21875 25.058594 25.050781zm12-123.1875c18.574218 2.636718 33.65625 16.34375 38.050781 34.582031 4.390625 18.238281-2.800781 37.3125-18.136719 48.113281-5.914062 4.175782-12.742188 6.875-19.914062 7.871094zm0 0"/></g></svg>