<svg height="419pt" viewBox="-3 0 419 419.79693" width="419pt" xmlns="http://www.w3.org/2000/svg" xmlns:xlink="http://www.w3.org/1999/xlink"><linearGradient id="lg1"><stop offset=".322" stop-color="#a163f5"/><stop offset=".466" stop-color="#b074ee"/><stop offset=".752" stop-color="#d8a1dd"/><stop offset=".898" stop-color="#efbad3"/></linearGradient><linearGradient id="linear0" gradientUnits="userSpaceOnUse" x1="206.398465" x2="206.398465" xlink:href="#lg1" y1="443.9" y2="-19.828"/><linearGradient id="linear1" gradientUnits="userSpaceOnUse" x1="206.562465" x2="206.562465" xlink:href="#lg1" y1="443.9" y2="-19.828"/><linearGradient id="linear2" gradientUnits="userSpaceOnUse" x1="119.898465" x2="119.898465" xlink:href="#lg1" y1="443.9" y2="-19.828"/><linearGradient id="linear3" gradientUnits="userSpaceOnUse" x1="248.398465" x2="248.398465" xlink:href="#lg1" y1="443.9" y2="-19.828"/><linearGradient id="linear4" gradientUnits="userSpaceOnUse" x1="183.898465" x2="183.898465" xlink:href="#lg1" y1="443.9" y2="-19.828"/><path d="m206.398438 0c-113.589844 0-206 92.410156-206 206s92.410156 206 206 206c23.863281-.007812 47.539062-4.183594 69.96875-12.332031l114.546874 20.039062c2.167969.378907 4.367188-.457031 5.734376-2.179687 1.367187-1.722656 1.683593-4.054688.820312-6.078125l-31.863281-74.925781c30.359375-36.707032 46.917969-82.886719 46.792969-130.523438 0-113.585938-92.410157-206-206-206zm180.734374 276.652344c-7.882812 20.03125-19.054687 38.601562-33.054687 54.953125-1.472656 1.730469-1.84375 4.144531-.953125 6.238281l28.980469 68.140625-105.257813-18.410156c-.339844-.0625-.6875-.089844-1.03125-.089844-.710937 0-1.417968.125-2.085937.371094-21.542969 8.023437-44.34375 12.132812-67.332031 12.144531-106.972657 0-194-87.027344-194-194s87.027343-194 194-194c106.972656 0 194 87.027344 194 194 .039062 24.171875-4.460938 48.140625-13.265626 70.652344zm0 0" fill="url(#linear0)"/><path d="m297.09375 132.214844c-.089844 13.355468 9.238281 24.921875 22.304688 27.671875v27.703125c-3.480469-1.289063-7.109376-2.132813-10.800782-2.519532-2.90625-17.359374-17.894531-30.097656-35.492187-30.171874h-35.707031v-14.925782c-.105469-7.253906-6.015626-13.078125-13.269532-13.074218h-34.730468v-14.722657c0-3.316406-2.6875-6-6-6s-6 2.683594-6 6v14.722657h-33.363282c-7.203125 0-12.636718 5.867187-12.636718 13.074218v14.925782h-36.339844c-19.851563 0-35.660156 16.371093-35.660156 36.222656v88.777344c-.066407 9.511718 3.660156 18.65625 10.351562 25.410156 6.691406 6.757812 15.800781 10.566406 25.308594 10.589844h178.046875c17.578125-.023438 32.578125-12.722657 35.5-30.058594 25.660156-2.835938 45.089843-24.511719 45.121093-50.328125 0-17.4375-9.328124-32.847657-22.328124-41.957031v-33.667969c14.519531-3.140625 24.140624-16.976563 22.039062-31.683594-2.105469-14.707031-15.222656-25.289063-30.042969-24.234375-14.820312 1.058594-26.304687 13.390625-26.304687 28.246094zm-153.695312 7.757812c0-.589844.050781-1.074218.636718-1.074218h80.09375c.628906-.007813 1.171875.449218 1.269532 1.074218v14.925782h-82zm154 139.925782c0 13.257812-10.746094 24-24 24h-178c-13.253907 0-24-10.742188-24-24v-89c0-13.253907 10.746093-24 24-24h178c13.253906 0 24 10.746093 24 24zm44.632812-44.386719c0 19.261719-14.632812 35.277343-32.632812 38.167969v-76.335938c18 2.890625 32.632812 18.90625 32.632812 38.167969zm-.296875-103.296875c0 9.011718-7.308594 16.320312-16.320313 16.320312-9.011718 0-16.316406-7.308594-16.316406-16.320312.003906-9.011719 7.308594-16.316406 16.324219-16.316406 9.003906.011718 16.304687 7.3125 16.316406 16.316406zm0 0" fill="url(#linear1)"/><path d="m120.140625 207.898438h-.265625c-11.214844.167968-20.273438 9.199218-20.476562 20.410156v11.914062c0 3.3125 3.160156 5.675782 6.476562 5.675782h28.265625c3.316406 0 6.257813-2.363282 6.257813-5.675782v-11.914062c-.101563-11.167969-9.085938-20.222656-20.257813-20.410156zm8.257813 26h-17v-5.589844c.195312-4.585938 3.886718-8.25 8.476562-8.410156h.265625c4.546875.179687 8.164063 3.863281 8.257813 8.410156zm0 0" fill="url(#linear2)"/><path d="m248.289062 207.898438h-.269531c-11.019531 0-19.621093 9.382812-19.621093 20.410156v11.914062c-.074219 1.515625.492187 2.996094 1.5625 4.074219 1.070312 1.082031 2.542968 1.660156 4.058593 1.601563h28.269531c1.570313.078124 3.101563-.480469 4.25-1.550782 1.152344-1.070312 1.820313-2.554687 1.859376-4.125v-11.914062c0-11.027344-9.082032-20.410156-20.109376-20.410156zm8.109376 26h-16v-5.589844c0-4.410156 3.210937-8.410156 7.621093-8.410156h.269531c4.515626.191406 8.085938 3.894531 8.109376 8.410156zm0 0" fill="url(#linear3)"/><path d="m212.347656 256.898438h-56.53125c-3.316406 0-6.417968 2.574218-6.417968 5.886718v.269532c0 18.746093 15.667968 33.84375 34.417968 33.84375h.53125c18.75.058593 33.992188-15.09375 34.050782-33.84375v-.269532c-.015626-1.582031-.664063-3.097656-1.796876-4.203125-1.136718-1.101562-2.667968-1.710937-4.253906-1.683593zm-28 28h-.53125c-9.84375-.039063-18.488281-6.550782-21.246094-16h43.023438c-2.757812 9.449218-11.402344 15.960937-21.246094 16zm0 0" fill="url(#linear4)"/></svg>