<svg width="512" height="490" viewBox="0 0 512 490" fill="none" xmlns="http://www.w3.org/2000/svg">
<path d="M482 170C482 175.523 477.523 180 472 180C466.477 180 462 175.523 462 170C462 87.2891 394.711 20 312 20H200C117.289 20 50 87.2891 50 170C50 175.523 45.5234 180 40 180C34.4766 180 30 175.523 30 170C30 76.2617 106.262 0 200 0H312C405.738 0 482 76.2617 482 170Z" fill="#025F80"/>
<path d="M512 147.75V187.75C512 204.316 498.57 217.75 482 217.75H470C470 222.742 465.523 226.793 460 226.793C454.477 226.793 450 222.742 450 217.75H432C426.477 217.75 422 213.273 422 207.75V127.75C422 122.227 426.477 117.75 432 117.75H446.902L443.641 108.785C440.809 101 444.82 92.3906 452.605 89.5586C460.391 86.7266 468.996 90.7383 471.832 98.5234L478.828 117.75H482C498.57 117.75 512 131.184 512 147.75ZM80 117.75H65.0977L68.3594 108.785C71.1914 101 67.1797 92.3906 59.3945 89.5586C51.6094 86.7266 43.0039 90.7383 40.168 98.5234L33.1719 117.75H30C13.4297 117.75 0 131.184 0 147.75V187.75C0 204.316 13.4297 217.75 30 217.75H80C85.5234 217.75 90 213.273 90 207.75V127.75C90 122.227 85.5234 117.75 80 117.75Z" fill="#FF6466"/>
<path d="M482 147.75V187.75C482 204.316 468.57 217.75 452 217.75H432C426.477 217.75 422 213.273 422 207.75V127.75C422 122.227 426.477 117.75 432 117.75H452C468.57 117.75 482 131.184 482 147.75ZM30 187.75V147.75C30 135.363 37.5117 124.734 48.2266 120.156C48.6914 119.961 49 119.512 49 119.008C49 118.313 48.4375 117.75 47.7461 117.75H30C13.4297 117.75 0 131.184 0 147.75V187.75C0 204.32 13.4297 217.75 30 217.75H60C43.4297 217.75 30 204.316 30 187.75Z" fill="#FF393A"/>
<path d="M286 328.75C286 350.84 272.57 368.75 256 368.75C239.43 368.75 226 350.84 226 328.75C226 306.66 239.43 288.75 256 288.75C272.57 288.75 286 306.66 286 328.75Z" fill="#0069A3"/>
<path d="M286 328.75C286 345.152 278.594 359.238 268 365.41C257.406 359.238 250 345.152 250 328.75C250 312.348 257.406 298.262 268 292.09C278.594 298.262 286 312.348 286 328.75Z" fill="#0088CC"/>
<path d="M447 173.75C447 251.07 384.32 313.75 307 313.75H205C127.68 313.75 65 251.07 65 173.75C65 96.4297 127.68 33.75 205 33.75H307C384.32 33.75 447 96.4297 447 173.75ZM312 333.75H200C145.52 333.75 98.3164 364.871 75.1797 410.309C119.977 459.277 184.398 490 256 490C327.602 490 392.023 459.277 436.82 410.309C413.684 364.871 366.48 333.75 312 333.75Z" fill="#97F0F2"/>
<path d="M307 313.75H243.98C166.66 313.75 103.98 251.07 103.98 173.75C103.98 96.4297 166.66 33.75 243.98 33.75H307C384.32 33.75 447 96.4297 447 173.75C447 251.07 384.32 313.75 307 313.75ZM256 490C327.602 490 392.023 459.277 436.82 410.309C413.684 364.871 366.48 333.75 312 333.75H240C175.141 333.75 120.598 377.855 104.699 437.711C146.355 470.465 198.898 490 256 490Z" fill="#C0FBFF"/>
<path d="M346 444C346 454.91 344.055 465.359 340.496 475.035C314.156 484.715 285.695 489 256 489C226.305 489 197.844 484.715 171.504 475.035C167.945 465.359 166 454.91 166 444C166 394.293 206.293 354 256 354C305.707 354 346 394.293 346 444Z" fill="#0088CC"/>
<path d="M322 258.75H190C151.34 258.75 120 227.41 120 188.75V158.75C120 120.09 151.34 88.75 190 88.75H322C360.66 88.75 392 120.09 392 158.75V188.75C392 227.41 360.66 258.75 322 258.75ZM225.016 466.633C203.945 461.934 188.594 443.484 188.5 421.895C188.5 421.762 188.5 421.633 188.5 421.5C188.5 402.395 194.457 384.684 204.609 370.109C181.273 386.371 166 413.398 166 444C166 454.91 167.945 465.359 171.504 475.035C197.844 484.715 226.305 490 256 490C285.688 490 314.137 484.719 340.469 475.047C341.824 471.355 342.969 467.563 343.84 463.66C323.035 469.41 301.133 472.5 278.5 472.5C260.129 472.5 242.23 470.473 225.016 466.633Z" fill="#006CBC"/>
<path d="M322 258.75H220C181.34 258.75 150 227.41 150 188.75V158.75C150 120.09 181.34 88.75 220 88.75H322C360.66 88.75 392 120.09 392 158.75V188.75C392 227.41 360.66 258.75 322 258.75Z" fill="#0088CC"/>
<path d="M284.285 201.93C288.191 205.836 288.191 212.164 284.285 216.07C268.688 231.668 243.312 231.668 227.715 216.07C223.812 212.168 223.812 205.836 227.715 201.93C231.621 198.023 237.953 198.023 241.859 201.93C249.656 209.727 262.344 209.727 270.145 201.93C272.098 199.977 274.656 199 277.215 199C279.773 199 282.332 199.977 284.285 201.93ZM226.18 140.695C210.582 125.102 185.203 125.102 169.609 140.695C165.703 144.602 165.703 150.934 169.609 154.84C173.516 158.742 179.848 158.742 183.754 154.84C191.551 147.039 204.238 147.039 212.035 154.84C213.988 156.793 216.547 157.77 219.105 157.77C221.664 157.77 224.227 156.793 226.18 154.84C230.082 150.934 230.082 144.602 226.18 140.695ZM342.391 140.695C326.793 125.102 301.418 125.102 285.82 140.695C281.918 144.602 281.918 150.934 285.82 154.84C289.727 158.742 296.059 158.742 299.965 154.84C307.762 147.039 320.449 147.039 328.25 154.84C330.203 156.793 332.762 157.77 335.32 157.77C337.879 157.77 340.438 156.793 342.391 154.84C346.297 150.934 346.297 144.602 342.391 140.695Z" fill="#30D6CE"/>
<path d="M271 437V489.547C266.035 489.848 261.039 490 256 490C250.961 490 245.965 489.848 241 489.547V437C241 428.715 247.715 422 256 422C264.285 422 271 428.715 271 437Z" fill="#84DEEA"/>
<path d="M271 437V459C271 467.285 264.285 474 256 474C247.715 474 241 467.285 241 459V437C241 428.715 247.715 422 256 422C264.285 422 271 428.715 271 437ZM256 410C265.941 410 274 401.941 274 392C274 382.059 265.941 374 256 374C246.059 374 238 382.059 238 392C238 401.941 246.059 410 256 410Z" fill="#FFF5F5"/>
<path d="M470 217.75V237.75C470 259.805 452.055 277.75 430 277.75H260V257.75H430C441.027 257.75 450 248.777 450 237.75V217.75H470Z" fill="#025F80"/>
<path d="M288.945 283.109H223.055C213.637 283.109 206 275.473 206 266.055C206 256.637 213.637 249 223.055 249H288.945C298.363 249 306 256.637 306 266.055C306 275.477 298.363 283.109 288.945 283.109Z" fill="#FF6466"/>
<path d="M288.945 283.109H253.055C243.637 283.109 236 275.473 236 266.055C236 256.637 243.637 249 253.055 249H288.945C298.363 249 306 256.637 306 266.055C306 275.477 298.363 283.109 288.945 283.109Z" fill="#FF895A"/>
</svg>
