<svg width="512" height="512" viewBox="0 0 512 512" fill="none" xmlns="http://www.w3.org/2000/svg">
<path d="M440 409.418V427.414C440 431.672 438.305 435.762 435.266 438.738C424.168 449.629 412.086 459.512 399.16 468.246C396.695 469.914 393.48 470.004 390.957 468.434C351.773 444.074 305.531 430 256 430C206.922 430 161.074 443.82 122.121 467.77C118.93 469.73 114.879 469.645 111.785 467.527C99.1523 458.902 87.3398 449.168 76.4727 438.477C72.3594 434.43 70 428.93 70 423.156V407.246C70 386.676 53.3242 370 32.7539 370C29.0313 370 25.6445 367.852 24.0625 364.484C8.62891 331.547 0 294.781 0 256C0 114.715 114.457 0.160155 255.707 -1.4051e-06C397.051 -0.160157 512.34 115.281 512 256.629C511.906 295.246 503.258 331.848 487.855 364.648C486.32 367.918 483.027 370 479.418 370C457.648 370 440 387.648 440 409.418V409.418Z" fill="white"/>
<path d="M296 270C296 292.09 278.09 310 256 310C233.91 310 216 292.09 216 270C216 247.91 233.91 230 256 230C278.09 230 296 247.91 296 270Z" fill="#0995A3"/>
<path d="M350 20C350 31.0469 341.047 40 330 40C323.41 40 317.582 36.7969 313.938 31.8828C283.059 39.1641 260 66.9297 260 100H240C240 56.6289 270.84 20.3242 311.742 11.8633C314.859 4.87891 321.855 0 330 0C341.047 0 350 8.95312 350 20Z" fill="#013F69"/>
<path d="M333 5C338.523 5 343 9.47656 343 15C343 20.5234 338.523 25 333 25C327.477 25 323 20.5234 323 15C323 9.47656 327.477 5 333 5Z" fill="#015081"/>
<path d="M350 275.332H160C104.773 275.332 60 230.562 60 175.332V165.332C60 110.105 104.773 65.332 160 65.332H350C405.227 65.332 450 110.105 450 165.332V175.332C450 230.562 405.227 275.332 350 275.332ZM487.988 364.348C474.914 392.293 456.945 417.48 435.18 438.816L401.289 404.93C400.934 404.574 400.594 404.207 400.254 403.844V450C400.254 456.391 399.648 462.637 398.504 468.691C357.77 496.039 308.75 512 256 512C202.383 512 152.625 495.508 111.5 467.332C110.516 461.699 110 455.91 110 450V405.641L76.8203 438.816C55.0547 417.48 37.0859 392.293 24.0117 364.348L47.0703 341.289C56.082 332.281 68.3203 328.477 80.0625 329.863C81.1992 308.789 98.6445 292.051 120 292.051C136.207 292.051 150.148 301.691 156.434 315.547C171.922 305.703 190.293 300 210 300H300.258C323.359 300 344.629 307.84 361.559 320.996C366.359 304.281 381.746 292.051 400 292.051C421.309 292.051 438.719 308.711 439.926 329.719C449.043 330.465 457.953 334.313 464.93 341.289L487.988 364.348Z" fill="#0CABB9"/>
<path d="M199 275.332C143.77 275.332 99 230.562 99 175.332V165.332C99 110.105 143.77 65.332 199 65.332H350C405.23 65.332 450 110.105 450 165.332V175.332C450 230.562 405.23 275.332 350 275.332H199ZM120 372.051C105.316 372.051 92.4844 364.129 85.5273 352.336C79.2148 354.141 73.2578 357.527 68.2852 362.504L38.9766 391.812C49.7266 408.949 62.4453 424.723 76.8203 438.816L110.711 404.93C119.707 395.934 123.52 383.719 122.152 371.988C121.437 372.027 120.723 372.051 120 372.051V372.051ZM464.93 341.289C457.953 334.313 449.043 330.457 439.926 329.711C439.973 330.484 440 331.262 440 332.051C440 349.43 428.91 364.219 413.422 369.734C415.367 374.832 418.395 379.609 422.504 383.715L455.363 416.578C468.227 400.629 479.211 383.109 487.988 364.348L464.93 341.289ZM360 332.051C360 328.043 360.598 324.176 361.691 320.527C344.863 307.652 323.824 300 301 300H250C194.77 300 150 344.77 150 400V450C150 465.516 153.535 480.203 159.84 493.305C189.531 505.352 221.984 512 256 512C309.117 512 358.457 495.82 399.355 468.125C400.434 462.246 401 456.188 401 450V400C401 390.254 399.598 380.832 397 371.926C376.312 370.391 360 353.129 360 332.051V332.051Z" fill="#2ABBC7"/>
<path d="M342 195.332H170C145.148 195.332 125 175.188 125 150.332C125 125.48 145.148 105.332 170 105.332H342C366.852 105.332 387 125.48 387 150.332C387 175.188 366.852 195.332 342 195.332Z" fill="#013F69"/>
<path d="M342 195.332H195C170.148 195.332 150 175.188 150 150.332C150 125.48 170.148 105.332 195 105.332H342C366.852 105.332 387 125.48 387 150.332C387 175.188 366.852 195.332 342 195.332Z" fill="#015081"/>
<path d="M195 125.332C181.191 125.332 170 136.527 170 150.332C170 164.141 181.191 175.332 195 175.332C208.809 175.332 220 164.141 220 150.332C220 136.527 208.809 125.332 195 125.332ZM195 160.332C189.477 160.332 185 155.855 185 150.332C185 144.809 189.477 140.332 195 140.332C200.523 140.332 205 144.809 205 150.332C205 155.855 200.523 160.332 195 160.332ZM315 125.332C301.191 125.332 290 136.527 290 150.332C290 164.141 301.191 175.332 315 175.332C328.809 175.332 340 164.141 340 150.332C340 136.527 328.809 125.332 315 125.332ZM315 160.332C309.477 160.332 305 155.855 305 150.332C305 144.809 309.477 140.332 315 140.332C320.523 140.332 325 144.809 325 150.332C325 155.855 320.523 160.332 315 160.332Z" fill="#84DEEA"/>
<path d="M140 332.051C140 343.094 131.047 352.051 120 352.051C108.953 352.051 100 343.094 100 332.051C100 321.004 108.953 312.051 120 312.051C131.047 312.051 140 321.004 140 332.051ZM400 312.051C388.953 312.051 380 321.004 380 332.051C380 343.094 388.953 352.051 400 352.051C411.047 352.051 420 343.094 420 332.051C420 321.004 411.047 312.051 400 312.051Z" fill="#84DEEA"/>
<path d="M140 332.051C140 340.441 134.828 347.613 127.5 350.582C123.891 349.117 120.809 346.629 118.605 343.48C117.852 342.398 118.645 340.961 119.969 340.965H120C125.195 340.965 129.355 336.52 128.883 331.227C128.547 327.5 125.809 324.313 122.18 323.402C121.418 323.211 120.672 323.129 119.945 323.133C118.633 323.141 117.855 321.695 118.605 320.621C120.809 317.469 123.891 314.98 127.504 313.516C134.828 316.484 140 323.656 140 332.051V332.051ZM407.5 313.516C403.887 314.98 400.805 317.469 398.605 320.621C397.852 321.695 398.633 323.141 399.941 323.133C400.668 323.129 401.418 323.215 402.18 323.402C405.809 324.313 408.547 327.5 408.879 331.227C409.355 336.52 405.195 340.965 400 340.965C399.988 340.965 399.977 340.965 399.965 340.965C398.645 340.961 397.848 342.398 398.605 343.48C400.805 346.633 403.887 349.121 407.5 350.582C414.824 347.613 420 340.441 420 332.051C420 323.66 414.828 316.484 407.5 313.516Z" fill="#D3F1F5"/>
<path d="M330 330C335.523 330 340 334.477 340 340C340 345.523 335.523 350 330 350C324.477 350 320 345.523 320 340C320 334.477 324.477 330 330 330ZM290 340C290 345.523 294.477 350 300 350C305.523 350 310 345.523 310 340C310 334.477 305.523 330 300 330C294.477 330 290 334.477 290 340Z" fill="#0995A3"/>
<path d="M270 330C275.523 330 280 334.477 280 340C280 345.523 275.523 350 270 350C264.477 350 260 345.523 260 340C260 334.477 264.477 330 270 330Z" fill="#84DEEA"/>
</svg>
