<svg width="1618" height="257" viewBox="0 0 1618 257" fill="none" xmlns="http://www.w3.org/2000/svg">
<path d="M587.6 96.7V119.6C583 118.3 578.1 118.1 573.9 118.1C545.1 118.1 525.6 137.4 525.6 168.3C525.6 199.8 544.7 217.3 574.6 217.3C588.3 217.3 601.7 215.4 613.7 211.4V75.5C606.3 78.2 598.6 82 592.1 87.3C588.6 90 587.6 92.8 587.6 96.7ZM587.6 194.6C583.2 195.9 580 196.1 576.5 196.1C559.3 196.1 552.5 184.8 552.5 168.4C552.5 150.1 559.2 139 576.2 139C581.2 139 584.4 139.6 587.5 140.5V194.6H587.6ZM471 117.8C460.7 117.6 451.7 118.8 442.8 121C441.1 126.9 441.3 135.5 442.8 141.6C453.7 139.1 459.8 138.9 466.8 138.9C480.2 138.9 486.8 144.4 486.8 155.5V156.6C482.8 156.2 478 155.8 474.6 155.8C452.3 155.8 433.2 163.8 433.2 185.2C433.2 209.4 450.4 217.6 475.4 217.6C487.2 217.6 500 215.5 511.7 211.9V157.5C511.7 131.2 497.7 118.4 471 117.8ZM486.7 195.9C485.2 196.3 478.7 197 475.6 197C463.6 197 457.1 193.4 457.1 185C457.1 176.6 463.6 173.2 475.6 173.2C479.6 173.2 484.2 173.6 486.7 173.8V195.9ZM133.7 140.6L114.7 151.5V216.5H135C136.9 216.5 138.4 215 138.4 213.1V143C138.4 140.4 135.8 139.4 133.7 140.6ZM94.2 165.9V214.4C94.2 215.6 95.2 216.6 96.4 216.6H109.4V154.6L96.4 162.1C95 162.9 94.2 164.1 94.2 165.9ZM107.8 46.7C94.6 46.7 80.2 47.9 65.9 50.3C80.3 31.8 103.2 19.8 128.7 19.8C147.5 19.8 166.4 26.9 179 37.5C181.3 39.4 183 39.6 184.8 37.8C186.6 36.1 186.4 34.3 184.4 32.1C168 13 143.7 -1.02865e-05 115 0.49999C77.5 1.19999 45.7 24.9 33.5 57.8C22.4 61.3 12.2 65.4 3.20001 70.4C0.700006 71.8 -0.0999942 73.5 0.700006 75.6C1.60001 77.5 3.30001 78.2 5.80001 77.5C13.5 75.2 21.5 73.3 29.7 71.6C28.8 75.9 28.3 80.4 28.3 85.1C27.6 115.4 43.8 144.1 68.8 159.9C71.3 161.5 73.4 161.5 74.8 159.6C76.2 157.7 76 156 73.9 154.1C58.1 139.9 49.3 118.8 49.3 97.8C49.3 87.2 51.4 77 55.5 67.8C63.8 67.1 72.7 66.6 82.6 66.6C146.6 66.6 200.7 87.7 200.7 115.4C200.7 129.4 182.9 143.4 161.8 152.8C156.7 155.1 156.2 156.6 156.9 158.9C157.6 161 159.9 161.7 162.5 160.8C199.4 148.7 227.4 128.8 227.4 104.7C227.5 72 174.7 46.7 107.8 46.7ZM314 118.2C306.4 118.2 299.1 119.9 294.5 122.2V75.6C287.1 78.3 279.4 82.1 272.9 87.4C269.5 90.1 268.5 92.9 268.5 96.9V212C275.4 214.9 289.5 217.5 303 217.5C337 217.5 356.6 196.7 356.6 166.7C356.5 136.7 342.6 118.2 314 118.2ZM304.4 196.1C301.7 196.1 297.5 196.1 294.5 195V142.7C298.1 140.8 303.1 139.8 309.6 139.8C322.6 139.8 329.6 148.8 329.6 165.8C329.6 183.7 321.4 196.1 304.4 196.1ZM422.9 119C410.5 119 403.4 123.8 396.6 132.4C396 128 395.1 124.4 393.7 120C391.2 119.2 386.8 118.9 383 118.9C379.4 118.9 374.8 119.3 372.5 120V215.2C375.7 216 380.9 216.2 385.5 216.2C389.9 216.2 395.8 215.8 398.5 215.2V168.8C398.5 150.3 408.2 140.4 421.2 140.4C423.5 140.4 427.5 140.4 429.8 140.8C431.3 134.7 431.5 125.9 430.2 119.8C428.7 119.4 425 119 422.9 119ZM1362.4 121.9V201.9C1356.8 203.2 1350.5 204.2 1342.8 204.2C1325 204.2 1315.6 194.6 1315.6 173.7V121.9C1313.5 121.5 1310.8 121.1 1307.9 121.1C1305 121.1 1301.8 121.5 1299.6 121.9V174.3C1299.6 202.7 1314.6 217.1 1341.8 217.1C1354.3 217.1 1367.1 214.8 1378.3 211.7V121.9C1376.2 121.5 1373.3 121.1 1370.4 121.1C1367.6 121.2 1364.5 121.5 1362.4 121.9ZM1441.1 121.2C1430.9 121.2 1422.3 126 1415.8 135C1415.6 130.6 1415 126 1414.3 122C1412.4 121.4 1409.7 121.2 1407.6 121.2C1405.1 121.2 1402.6 121.6 1400.7 122V215.8C1402.8 216.2 1405.5 216.6 1408.4 216.6C1411.3 216.6 1414.5 216.2 1416.7 215.8V162.8C1416.7 145.7 1427.4 134.2 1441.1 134.2C1443.6 134.2 1446.5 134.2 1448.4 134.8C1449 132.5 1449.2 130 1449.2 127.9C1449.2 126 1449 123.9 1448.6 121.9C1446.1 121.5 1443.6 121.2 1441.1 121.2ZM1199.3 169.3C1199.3 196.7 1215.8 213.6 1239.2 213.6C1248.6 213.6 1255.3 211.9 1262 209.2V216.3C1262 235.9 1252 243.9 1234 243.9C1223.8 243.9 1214.6 241.8 1206 237.8C1205.6 239.9 1205.4 242.2 1205.4 244.1C1205.4 246.4 1205.6 248.5 1206 250.6C1214.8 254.6 1224.6 256.7 1235.7 256.7C1262.4 256.7 1277.9 241.7 1277.9 214.5V125.7C1270.6 122.8 1259.1 120.3 1247.6 120.3C1216.6 120.4 1199.3 141.1 1199.3 169.3ZM1262 197C1255.3 199.7 1249.3 201 1241.8 201C1225.7 201 1215.3 188.7 1215.3 169.7C1215.3 147.2 1226.8 133.2 1246.6 133.2C1252.9 133.2 1258.1 133.8 1262 135.1V197ZM1596.9 163.2L1587.7 159C1578.5 154.8 1573.5 152.1 1573.5 145C1573.5 136.2 1582.1 133.3 1591.7 133.3C1600 133.3 1606.9 134.8 1614.1 137.3C1614.5 135.2 1614.7 132.9 1614.7 130.8C1614.7 128.9 1614.5 126.8 1614.1 125C1608.7 122.3 1598.9 120.4 1589.5 120.4C1572.2 120.4 1557.6 130.2 1557.6 144.6C1557.6 156.9 1562.8 164 1579.7 171.3L1586.8 174.4C1597.7 179.2 1602 183.2 1602 190.7C1602 200.9 1592.4 204.3 1583.2 204.3C1573.4 204.3 1564.8 202.4 1556.1 198.9C1555.5 200.8 1555.3 202.9 1555.3 205.2C1555.3 207.3 1555.5 209.4 1556.1 211.5C1563.4 215.1 1572.8 217.1 1585.3 217.1C1603.3 217.1 1617.9 206.9 1617.9 190.8C1618 177.6 1611.3 169.7 1596.9 163.2ZM1147.9 120.4C1122.8 120.4 1106.8 140 1106.8 169.1C1106.8 198.7 1123.3 217.1 1151.7 217.1C1162.1 217.1 1172.6 215 1179.1 212.1C1179.5 210.2 1179.7 208.1 1179.7 206C1179.7 203.9 1179.5 201.8 1179.1 199.9C1170.9 202.6 1162.4 204.5 1152.8 204.5C1133.6 204.5 1123.1 192.2 1122.1 172.3H1184.1C1184.5 170 1184.7 164.6 1184.7 161.9C1184.7 136.3 1169.7 120.4 1147.9 120.4ZM1122.3 160.3C1123.6 143 1134.2 132.7 1147.6 132.7C1161.8 132.7 1169.7 144.2 1169.7 160.3H1122.3ZM1501 120.4C1475.5 120.4 1459.6 138.2 1459.6 168.9C1459.6 199.2 1475.3 217.3 1500.9 217.3C1526.8 217.3 1542.5 199.1 1542.5 168.9C1542.4 138 1527.2 120.4 1501 120.4ZM1500.8 204.4C1484.3 204.4 1475.7 191.7 1475.7 168.9C1475.7 145.7 1484.7 133.2 1501 133.2C1517.7 133.2 1526.3 145.3 1526.3 168.9C1526.3 192.2 1517.5 204.4 1500.8 204.4ZM927.9 117.8C898.7 117.8 882.3 137.8 882.3 167.8C882.3 198.3 899.5 217.4 927.9 217.4C957.3 217.4 973.7 197.9 973.7 167.8C973.7 137.5 957.3 117.8 927.9 117.8ZM927.9 196.3C913.4 196.3 909 184.5 909 167.7C909 151.3 913.4 138.7 927.9 138.7C942.8 138.7 947 150.9 947 167.7C947.1 185.4 942.2 196.3 927.9 196.3ZM773.9 158.7L763.4 154.3C757.3 151.8 753.7 149.7 753.7 145.7C753.7 139.6 759.2 138.3 766.3 138.3C773.4 138.3 780.8 139.1 790.9 142.3C792.2 135.4 792.2 128.9 790.9 122.8C784.6 119.4 772.8 117.8 762.5 117.8C742.3 117.8 727 128.7 727 145.1C727 159.8 733.3 167.2 751 174.3L759.2 177.7C767 180.9 769.3 182.7 769.3 187.8C769.3 195.4 761.7 196.6 755.4 196.6C744.9 196.6 736.9 194.5 726.8 190.9C725.1 197 725.1 205 726.8 211.3C735.4 215.9 747.2 217.4 759.6 217.4C779.6 217.4 795.5 206.9 795.5 188C795.6 172.4 788.8 165 773.9 158.7ZM855 195.9C842 195.9 833.4 185.6 833.4 167.5C833.4 150.3 840.3 139.1 855.2 139.1C861.5 139.1 865.9 140.2 871.8 142.5C873.5 136.6 876.6 129.9 881 124.2C872.8 120 864.8 117.7 851.8 117.7C823 117.7 806.4 138.1 806.4 167.5C806.4 198 823.4 217.3 852.8 217.3C863.5 217.3 873.4 215.4 881.4 211C877.8 206.4 873.8 200.1 871.5 192.7C864.3 195.7 861.1 195.9 855 195.9ZM1071.7 163.2L1062.5 159C1053.3 154.8 1048.3 152.1 1048.3 145C1048.3 136.2 1056.9 133.3 1066.5 133.3C1074.7 133.3 1081.7 134.8 1089 137.3C1089.4 135.2 1089.6 132.9 1089.6 130.8C1089.6 128.9 1089.4 126.8 1089 125C1083.6 122.3 1073.8 120.4 1064.4 120.4C1047.1 120.4 1032.5 130.2 1032.5 144.6C1032.5 156.9 1037.7 164 1054.6 171.3L1061.7 174.4C1072.6 179.2 1076.9 183.2 1076.9 190.7C1076.9 200.9 1067.3 204.3 1058.1 204.3C1048.3 204.3 1039.7 202.4 1031 198.9C1030.4 200.8 1030.2 202.9 1030.2 205.2C1030.2 207.3 1030.4 209.4 1031 211.5C1038.3 215.1 1047.7 217.1 1060.2 217.1C1078.2 217.1 1092.8 206.9 1092.8 190.8C1092.8 177.6 1086.1 169.7 1071.7 163.2ZM673.7 117.8C645.5 117.8 628.3 136.7 628.3 168.2C628.3 199.7 646.6 217.4 677.9 217.4C688.6 217.4 700.2 215.5 707.5 211.9C709 205.8 709 197.8 707.5 191.7C697.8 194.4 689.6 196.1 680.6 196.1C666.1 196.1 656 190.6 653.9 175.3H713.1C713.9 173 714.1 165.2 714.1 162.1C714.3 133.7 698.3 117.8 673.7 117.8ZM654 156.2C655.9 144.6 662.8 137.7 673.3 137.7C685.1 137.7 689.7 145.7 690.1 156.2H654Z" fill="#AF122F"/>
</svg>
